<?xml version="1.0" encoding="utf-8" standalone="no"?>
<!DOCTYPE svg PUBLIC "-//W3C//DTD SVG 1.1//EN"
  "http://www.w3.org/Graphics/SVG/1.1/DTD/svg11.dtd">
<!-- Created with matplotlib (http://matplotlib.org/) -->
<svg height="720pt" version="1.1" viewBox="0 0 720 720" width="720pt" xmlns="http://www.w3.org/2000/svg" xmlns:xlink="http://www.w3.org/1999/xlink">
 <defs>
  <style type="text/css">
*{stroke-linecap:butt;stroke-linejoin:round;}
  </style>
 </defs>
 <g id="figure_1">
  <g id="patch_1">
   <path d="M 0 720 
L 720 720 
L 720 0 
L 0 0 
z
" style="fill:#ffffff;"/>
  </g>
  <g id="axes_1">
   <g id="patch_2">
    <path clip-path="url(#p67616dfb2b)" d="M 377.965469 308.510479 
Q 399.289858 284.413622 407.874779 301.875002 
Q 414.950062 316.265837 438.482721 233.273601 
Q 443.682277 214.936413 455.754938 284.066671 
Q 469.928032 365.224388 473.242417 291.065923 
Q 491.27676 -112.447586 495.869384 253.43886 
" style="fill:none;stroke:#000000;stroke-linejoin:miter;"/>
   </g>
   <g id="patch_3">
    <path clip-path="url(#p67616dfb2b)" d="M 424.447245 354.692372 
Q 448.700575 333.505561 431.12581 324.976026 
Q 416.641528 317.94639 500.172675 294.565555 
Q 518.628935 289.399545 449.049779 277.404771 
Q 367.365064 263.323117 442.005077 260.030115 
Q 848.138804 242.112122 479.876472 237.549128 
" style="fill:none;stroke:#000000;stroke-linejoin:miter;"/>
   </g>
   <g id="patch_4">
    <path clip-path="url(#p67616dfb2b)" d="M 424.447245 372.507628 
Q 448.700575 393.694439 431.12581 402.223974 
Q 416.641528 409.25361 500.172675 432.634445 
Q 518.628935 437.800455 449.049779 449.795229 
Q 367.365064 463.876883 442.005077 467.169885 
Q 848.138804 485.087878 479.876472 489.650872 
" style="fill:none;stroke:#000000;stroke-linejoin:miter;"/>
   </g>
   <g id="patch_5">
    <path clip-path="url(#p67616dfb2b)" d="M 377.965469 418.689521 
Q 399.289858 442.786378 407.874779 425.324998 
Q 414.950062 410.934163 438.482721 493.926399 
Q 443.682277 512.263587 455.754938 443.133329 
Q 469.928032 361.975612 473.242417 436.134077 
Q 491.27676 839.647586 495.869384 473.76114 
" style="fill:none;stroke:#000000;stroke-linejoin:miter;"/>
   </g>
   <g id="patch_6">
    <path clip-path="url(#p67616dfb2b)" d="M 360.034531 418.689521 
Q 338.710142 442.786378 330.125221 425.324998 
Q 323.049938 410.934163 299.517279 493.926399 
Q 294.317723 512.263587 282.245062 443.133329 
Q 268.071968 361.975612 264.757583 436.134077 
Q 246.72324 839.647586 242.130616 473.76114 
" style="fill:none;stroke:#000000;stroke-linejoin:miter;"/>
   </g>
   <g id="patch_7">
    <path clip-path="url(#p67616dfb2b)" d="M 313.552755 372.507628 
Q 289.299425 393.694439 306.87419 402.223974 
Q 321.358472 409.25361 237.827325 432.634445 
Q 219.371065 437.800455 288.950221 449.795229 
Q 370.634936 463.876883 295.994923 467.169885 
Q -110.138804 485.087878 258.123528 489.650872 
" style="fill:none;stroke:#000000;stroke-linejoin:miter;"/>
   </g>
   <g id="patch_8">
    <path clip-path="url(#p67616dfb2b)" d="M 313.552755 354.692372 
Q 289.299425 333.505561 306.87419 324.976026 
Q 321.358472 317.94639 237.827325 294.565555 
Q 219.371065 289.399545 288.950221 277.404771 
Q 370.634936 263.323117 295.994923 260.030115 
Q -110.138804 242.112122 258.123528 237.549128 
" style="fill:none;stroke:#000000;stroke-linejoin:miter;"/>
   </g>
   <g id="patch_9">
    <path clip-path="url(#p67616dfb2b)" d="M 360.034531 308.510479 
Q 338.710142 284.413622 330.125221 301.875002 
Q 323.049938 316.265837 299.517279 233.273601 
Q 294.317723 214.936413 282.245062 284.066671 
Q 268.071968 365.224388 264.757583 291.065923 
Q 246.72324 -112.447586 242.130616 253.43886 
" style="fill:none;stroke:#000000;stroke-linejoin:miter;"/>
   </g>
   <g id="patch_10">
    <path clip-path="url(#p67616dfb2b)" d="M 377.965469 308.510479 
Q 399.289858 284.413622 407.874779 301.875002 
Q 414.950062 316.265837 438.482721 233.273601 
Q 443.682277 214.936413 455.754938 284.066671 
Q 469.928032 365.224388 473.242417 291.065923 
Q 491.27676 -112.447586 495.869384 253.43886 
" style="fill:none;stroke:#000000;stroke-linejoin:miter;"/>
   </g>
   <g id="patch_11">
    <path clip-path="url(#p67616dfb2b)" d="M 424.447245 354.692372 
Q 448.700575 333.505561 431.12581 324.976026 
Q 416.641528 317.94639 500.172675 294.565555 
Q 518.628935 289.399545 449.049779 277.404771 
Q 367.365064 263.323117 442.005077 260.030115 
Q 848.138804 242.112122 479.876472 237.549128 
" style="fill:none;stroke:#000000;stroke-linejoin:miter;"/>
   </g>
  </g>
 </g>
 <defs>
  <clipPath id="p67616dfb2b">
   <rect height="554.4" width="558" x="90" y="86.4"/>
  </clipPath>
 </defs>
</svg>
