<?xml version="1.0" encoding="utf-8" standalone="no"?>
<!DOCTYPE svg PUBLIC "-//W3C//DTD SVG 1.1//EN"
  "http://www.w3.org/Graphics/SVG/1.1/DTD/svg11.dtd">
<!-- Created with matplotlib (http://matplotlib.org/) -->
<svg height="720pt" version="1.1" viewBox="0 0 720 720" width="720pt" xmlns="http://www.w3.org/2000/svg" xmlns:xlink="http://www.w3.org/1999/xlink">
 <defs>
  <style type="text/css">
*{stroke-linecap:butt;stroke-linejoin:round;}
  </style>
 </defs>
 <g id="figure_1">
  <g id="patch_1">
   <path d="M 0 720 
L 720 720 
L 720 0 
L 0 0 
z
" style="fill:#ffffff;"/>
  </g>
  <g id="axes_1">
   <g id="patch_2">
    <path clip-path="url(#p4358ddc3b0)" d="M 401.096174 302.459812 
Q 412.363994 290.513651 425.371885 292.421741 
Q 431.404057 293.306584 449.877966 255.308273 
Q 470.241663 213.422927 480.709173 318.397326 
Q 480.947599 320.788407 483.937256 248.275162 
Q 485.356993 213.839864 491.690567 238.558929 
" style="fill:none;stroke:#000000;stroke-linejoin:miter;"/>
   </g>
   <g id="patch_3">
    <path clip-path="url(#p4358ddc3b0)" d="M 430.537202 331.710898 
Q 442.560936 320.515774 440.640455 307.591805 
Q 439.749867 301.59855 477.99492 283.243827 
Q 520.152249 263.011509 414.496198 252.611532 
Q 412.08959 252.374644 485.0737 249.404275 
Q 519.732604 247.993698 494.853026 241.700985 
" style="fill:none;stroke:#000000;stroke-linejoin:miter;"/>
   </g>
   <g id="patch_4">
    <path clip-path="url(#p4358ddc3b0)" d="M 430.537202 395.489102 
Q 442.560936 406.684226 440.640455 419.608195 
Q 439.749867 425.60145 477.99492 443.956173 
Q 520.152249 464.188491 414.496198 474.588468 
Q 412.08959 474.825356 485.0737 477.795725 
Q 519.732604 479.206302 494.853026 485.499015 
" style="fill:none;stroke:#000000;stroke-linejoin:miter;"/>
   </g>
   <g id="patch_5">
    <path clip-path="url(#p4358ddc3b0)" d="M 401.096174 424.740188 
Q 412.363994 436.686349 425.371885 434.778259 
Q 431.404057 433.893416 449.877966 471.891727 
Q 470.241663 513.777073 480.709173 408.802674 
Q 480.947599 406.411593 483.937256 478.924838 
Q 485.356993 513.360136 491.690567 488.641071 
" style="fill:none;stroke:#000000;stroke-linejoin:miter;"/>
   </g>
   <g id="patch_6">
    <path clip-path="url(#p4358ddc3b0)" d="M 336.903826 424.740188 
Q 325.636006 436.686349 312.628115 434.778259 
Q 306.595943 433.893416 288.122034 471.891727 
Q 267.758337 513.777073 257.290827 408.802674 
Q 257.052401 406.411593 254.062744 478.924838 
Q 252.643007 513.360136 246.309433 488.641071 
" style="fill:none;stroke:#000000;stroke-linejoin:miter;"/>
   </g>
   <g id="patch_7">
    <path clip-path="url(#p4358ddc3b0)" d="M 307.462798 395.489102 
Q 295.439064 406.684226 297.359545 419.608195 
Q 298.250133 425.60145 260.00508 443.956173 
Q 217.847751 464.188491 323.503802 474.588468 
Q 325.91041 474.825356 252.9263 477.795725 
Q 218.267396 479.206302 243.146974 485.499015 
" style="fill:none;stroke:#000000;stroke-linejoin:miter;"/>
   </g>
   <g id="patch_8">
    <path clip-path="url(#p4358ddc3b0)" d="M 307.462798 331.710898 
Q 295.439064 320.515774 297.359545 307.591805 
Q 298.250133 301.59855 260.00508 283.243827 
Q 217.847751 263.011509 323.503802 252.611532 
Q 325.91041 252.374644 252.9263 249.404275 
Q 218.267396 247.993698 243.146974 241.700985 
" style="fill:none;stroke:#000000;stroke-linejoin:miter;"/>
   </g>
   <g id="patch_9">
    <path clip-path="url(#p4358ddc3b0)" d="M 336.903826 302.459812 
Q 325.636006 290.513651 312.628115 292.421741 
Q 306.595943 293.306584 288.122034 255.308273 
Q 267.758337 213.422927 257.290827 318.397326 
Q 257.052401 320.788407 254.062744 248.275162 
Q 252.643007 213.839864 246.309433 238.558929 
" style="fill:none;stroke:#000000;stroke-linejoin:miter;"/>
   </g>
   <g id="patch_10">
    <path clip-path="url(#p4358ddc3b0)" d="M 401.096174 302.459812 
Q 412.363994 290.513651 425.371885 292.421741 
Q 431.404057 293.306584 449.877966 255.308273 
Q 470.241663 213.422927 480.709173 318.397326 
Q 480.947599 320.788407 483.937256 248.275162 
Q 485.356993 213.839864 491.690567 238.558929 
" style="fill:none;stroke:#000000;stroke-linejoin:miter;"/>
   </g>
   <g id="patch_11">
    <path clip-path="url(#p4358ddc3b0)" d="M 430.537202 331.710898 
Q 442.560936 320.515774 440.640455 307.591805 
Q 439.749867 301.59855 477.99492 283.243827 
Q 520.152249 263.011509 414.496198 252.611532 
Q 412.08959 252.374644 485.0737 249.404275 
Q 519.732604 247.993698 494.853026 241.700985 
" style="fill:none;stroke:#000000;stroke-linejoin:miter;"/>
   </g>
  </g>
 </g>
 <defs>
  <clipPath id="p4358ddc3b0">
   <rect height="554.4" width="558" x="90" y="86.4"/>
  </clipPath>
 </defs>
</svg>
