<?xml version="1.0" encoding="utf-8" standalone="no"?>
<!DOCTYPE svg PUBLIC "-//W3C//DTD SVG 1.1//EN"
  "http://www.w3.org/Graphics/SVG/1.1/DTD/svg11.dtd">
<!-- Created with matplotlib (http://matplotlib.org/) -->
<svg height="720pt" version="1.1" viewBox="0 0 720 720" width="720pt" xmlns="http://www.w3.org/2000/svg" xmlns:xlink="http://www.w3.org/1999/xlink">
 <defs>
  <style type="text/css">
*{stroke-linecap:butt;stroke-linejoin:round;}
  </style>
 </defs>
 <g id="figure_1">
  <g id="patch_1">
   <path d="M 0 720 
L 720 720 
L 720 0 
L 0 0 
z
" style="fill:#ffffff;"/>
  </g>
  <g id="axes_1">
   <g id="patch_2">
    <path clip-path="url(#pf3cdc6af0e)" d="M 369.939434 329.365723 
Q 370.932354 323.225824 371.867362 334.899838 
Q 372.807397 346.636628 384.552451 287.602728 
Q 401.358937 203.128666 414.222889 225.173403 
Q 441.378552 271.709601 444.18858 244.537225 
Q 450.121764 187.164591 461.553108 326.460408 
" style="fill:none;stroke:#000000;stroke-linejoin:miter;"/>
   </g>
   <g id="patch_3">
    <path clip-path="url(#pf3cdc6af0e)" d="M 403.456577 362.666627 
Q 409.636346 361.680113 397.886527 360.751137 
Q 386.073524 359.817167 445.49076 348.147888 
Q 530.513355 331.449831 508.325471 318.668872 
Q 461.48709 291.688406 488.835909 288.896508 
Q 546.581093 283.001603 406.380758 271.644008 
" style="fill:none;stroke:#000000;stroke-linejoin:miter;"/>
   </g>
   <g id="patch_4">
    <path clip-path="url(#pf3cdc6af0e)" d="M 403.456577 364.533373 
Q 409.636346 365.519887 397.886527 366.448863 
Q 386.073524 367.382833 445.49076 379.052112 
Q 530.513355 395.750169 508.325471 408.531128 
Q 461.48709 435.511594 488.835909 438.303492 
Q 546.581093 444.198397 406.380758 455.555992 
" style="fill:none;stroke:#000000;stroke-linejoin:miter;"/>
   </g>
   <g id="patch_5">
    <path clip-path="url(#pf3cdc6af0e)" d="M 369.939434 397.834277 
Q 370.932354 403.974176 371.867362 392.300162 
Q 372.807397 380.563372 384.552451 439.597272 
Q 401.358937 524.071334 414.222889 502.026597 
Q 441.378552 455.490399 444.18858 482.662775 
Q 450.121764 540.035409 461.553108 400.739592 
" style="fill:none;stroke:#000000;stroke-linejoin:miter;"/>
   </g>
   <g id="patch_6">
    <path clip-path="url(#pf3cdc6af0e)" d="M 368.060566 397.834277 
Q 367.067646 403.974176 366.132638 392.300162 
Q 365.192603 380.563372 353.447549 439.597272 
Q 336.641063 524.071334 323.777111 502.026597 
Q 296.621448 455.490399 293.81142 482.662775 
Q 287.878236 540.035409 276.446892 400.739592 
" style="fill:none;stroke:#000000;stroke-linejoin:miter;"/>
   </g>
   <g id="patch_7">
    <path clip-path="url(#pf3cdc6af0e)" d="M 334.543423 364.533373 
Q 328.363654 365.519887 340.113473 366.448863 
Q 351.926476 367.382833 292.50924 379.052112 
Q 207.486645 395.750169 229.674529 408.531128 
Q 276.51291 435.511594 249.164091 438.303492 
Q 191.418907 444.198397 331.619242 455.555992 
" style="fill:none;stroke:#000000;stroke-linejoin:miter;"/>
   </g>
   <g id="patch_8">
    <path clip-path="url(#pf3cdc6af0e)" d="M 334.543423 362.666627 
Q 328.363654 361.680113 340.113473 360.751137 
Q 351.926476 359.817167 292.50924 348.147888 
Q 207.486645 331.449831 229.674529 318.668872 
Q 276.51291 291.688406 249.164091 288.896508 
Q 191.418907 283.001603 331.619242 271.644008 
" style="fill:none;stroke:#000000;stroke-linejoin:miter;"/>
   </g>
   <g id="patch_9">
    <path clip-path="url(#pf3cdc6af0e)" d="M 368.060566 329.365723 
Q 367.067646 323.225824 366.132638 334.899838 
Q 365.192603 346.636628 353.447549 287.602728 
Q 336.641063 203.128666 323.777111 225.173403 
Q 296.621448 271.709601 293.81142 244.537225 
Q 287.878236 187.164591 276.446892 326.460408 
" style="fill:none;stroke:#000000;stroke-linejoin:miter;"/>
   </g>
   <g id="patch_10">
    <path clip-path="url(#pf3cdc6af0e)" d="M 369.939434 329.365723 
Q 370.932354 323.225824 371.867362 334.899838 
Q 372.807397 346.636628 384.552451 287.602728 
Q 401.358937 203.128666 414.222889 225.173403 
Q 441.378552 271.709601 444.18858 244.537225 
Q 450.121764 187.164591 461.553108 326.460408 
" style="fill:none;stroke:#000000;stroke-linejoin:miter;"/>
   </g>
   <g id="patch_11">
    <path clip-path="url(#pf3cdc6af0e)" d="M 403.456577 362.666627 
Q 409.636346 361.680113 397.886527 360.751137 
Q 386.073524 359.817167 445.49076 348.147888 
Q 530.513355 331.449831 508.325471 318.668872 
Q 461.48709 291.688406 488.835909 288.896508 
Q 546.581093 283.001603 406.380758 271.644008 
" style="fill:none;stroke:#000000;stroke-linejoin:miter;"/>
   </g>
  </g>
 </g>
 <defs>
  <clipPath id="pf3cdc6af0e">
   <rect height="554.4" width="558" x="90" y="86.4"/>
  </clipPath>
 </defs>
</svg>
