<?xml version="1.0" encoding="utf-8" standalone="no"?>
<!DOCTYPE svg PUBLIC "-//W3C//DTD SVG 1.1//EN"
  "http://www.w3.org/Graphics/SVG/1.1/DTD/svg11.dtd">
<!-- Created with matplotlib (http://matplotlib.org/) -->
<svg height="720pt" version="1.1" viewBox="0 0 720 720" width="720pt" xmlns="http://www.w3.org/2000/svg" xmlns:xlink="http://www.w3.org/1999/xlink">
 <defs>
  <style type="text/css">
*{stroke-linecap:butt;stroke-linejoin:round;}
  </style>
 </defs>
 <g id="figure_1">
  <g id="patch_1">
   <path d="M 0 720 
L 720 720 
L 720 0 
L 0 0 
z
" style="fill:#ffffff;"/>
  </g>
  <g id="axes_1">
   <g id="patch_2">
    <path clip-path="url(#p26fbc9c926)" d="M 369.038062 303.601872 
Q 372.365213 293.111742 381.982863 300.489023 
Q 437.400387 342.997393 437.714348 296.042639 
Q 452.863938 -1969.675528 456.273835 297.667859 
Q 485.68446 19853.68005 497.258006 309.935688 
Q 502.200754 -8036.668812 502.729993 338.182842 
" style="fill:none;stroke:#000000;stroke-linejoin:miter;"/>
   </g>
   <g id="patch_3">
    <path clip-path="url(#p26fbc9c926)" d="M 429.387726 363.562184 
Q 439.945974 360.256498 432.520789 350.700897 
Q 389.73639 295.640905 436.996045 295.328971 
Q 2717.426668 280.27712 435.360272 276.889222 
Q -19247.639012 247.668343 423.012782 236.169465 
Q 8823.816012 231.258605 394.582204 230.732781 
" style="fill:none;stroke:#000000;stroke-linejoin:miter;"/>
   </g>
   <g id="patch_4">
    <path clip-path="url(#p26fbc9c926)" d="M 429.387726 363.637816 
Q 439.945974 366.943502 432.520789 376.499103 
Q 389.73639 431.559095 436.996045 431.871029 
Q 2717.426668 446.92288 435.360272 450.310778 
Q -19247.639012 479.531657 423.012782 491.030535 
Q 8823.816012 495.941395 394.582204 496.467219 
" style="fill:none;stroke:#000000;stroke-linejoin:miter;"/>
   </g>
   <g id="patch_5">
    <path clip-path="url(#p26fbc9c926)" d="M 369.038062 423.598128 
Q 372.365213 434.088258 381.982863 426.710977 
Q 437.400387 384.202607 437.714348 431.157361 
Q 452.863938 2696.875528 456.273835 429.532141 
Q 485.68446 -19126.48005 497.258006 417.264312 
Q 502.200754 8763.868812 502.729993 389.017158 
" style="fill:none;stroke:#000000;stroke-linejoin:miter;"/>
   </g>
   <g id="patch_6">
    <path clip-path="url(#p26fbc9c926)" d="M 368.961938 423.598128 
Q 365.634787 434.088258 356.017137 426.710977 
Q 300.599613 384.202607 300.285652 431.157361 
Q 285.136062 2696.875528 281.726165 429.532141 
Q 252.31554 -19126.48005 240.741994 417.264312 
Q 235.799246 8763.868812 235.270007 389.017158 
" style="fill:none;stroke:#000000;stroke-linejoin:miter;"/>
   </g>
   <g id="patch_7">
    <path clip-path="url(#p26fbc9c926)" d="M 308.612274 363.637816 
Q 298.054026 366.943502 305.479211 376.499103 
Q 348.26361 431.559095 301.003955 431.871029 
Q -1979.426668 446.92288 302.639728 450.310778 
Q 19985.639012 479.531657 314.987218 491.030535 
Q -8085.816012 495.941395 343.417796 496.467219 
" style="fill:none;stroke:#000000;stroke-linejoin:miter;"/>
   </g>
   <g id="patch_8">
    <path clip-path="url(#p26fbc9c926)" d="M 308.612274 363.562184 
Q 298.054026 360.256498 305.479211 350.700897 
Q 348.26361 295.640905 301.003955 295.328971 
Q -1979.426668 280.27712 302.639728 276.889222 
Q 19985.639012 247.668343 314.987218 236.169465 
Q -8085.816012 231.258605 343.417796 230.732781 
" style="fill:none;stroke:#000000;stroke-linejoin:miter;"/>
   </g>
   <g id="patch_9">
    <path clip-path="url(#p26fbc9c926)" d="M 368.961938 303.601872 
Q 365.634787 293.111742 356.017137 300.489023 
Q 300.599613 342.997393 300.285652 296.042639 
Q 285.136062 -1969.675528 281.726165 297.667859 
Q 252.31554 19853.68005 240.741994 309.935688 
Q 235.799246 -8036.668812 235.270007 338.182842 
" style="fill:none;stroke:#000000;stroke-linejoin:miter;"/>
   </g>
   <g id="patch_10">
    <path clip-path="url(#p26fbc9c926)" d="M 369.038062 303.601872 
Q 372.365213 293.111742 381.982863 300.489023 
Q 437.400387 342.997393 437.714348 296.042639 
Q 452.863938 -1969.675528 456.273835 297.667859 
Q 485.68446 19853.68005 497.258006 309.935688 
Q 502.200754 -8036.668812 502.729993 338.182842 
" style="fill:none;stroke:#000000;stroke-linejoin:miter;"/>
   </g>
   <g id="patch_11">
    <path clip-path="url(#p26fbc9c926)" d="M 429.387726 363.562184 
Q 439.945974 360.256498 432.520789 350.700897 
Q 389.73639 295.640905 436.996045 295.328971 
Q 2717.426668 280.27712 435.360272 276.889222 
Q -19247.639012 247.668343 423.012782 236.169465 
Q 8823.816012 231.258605 394.582204 230.732781 
" style="fill:none;stroke:#000000;stroke-linejoin:miter;"/>
   </g>
  </g>
 </g>
 <defs>
  <clipPath id="p26fbc9c926">
   <rect height="554.4" width="558" x="90" y="86.4"/>
  </clipPath>
 </defs>
</svg>
