<?xml version="1.0" encoding="utf-8" standalone="no"?>
<!DOCTYPE svg PUBLIC "-//W3C//DTD SVG 1.1//EN"
  "http://www.w3.org/Graphics/SVG/1.1/DTD/svg11.dtd">
<!-- Created with matplotlib (http://matplotlib.org/) -->
<svg height="720pt" version="1.1" viewBox="0 0 720 720" width="720pt" xmlns="http://www.w3.org/2000/svg" xmlns:xlink="http://www.w3.org/1999/xlink">
 <defs>
  <style type="text/css">
*{stroke-linecap:butt;stroke-linejoin:round;}
  </style>
 </defs>
 <g id="figure_1">
  <g id="patch_1">
   <path d="M 0 720 
L 720 720 
L 720 0 
L 0 0 
z
" style="fill:#ffffff;"/>
  </g>
  <g id="axes_1">
   <g id="patch_2">
    <path clip-path="url(#pe05551d47c)" d="M 378.890639 287.09295 
Q 379.042614 245.142053 382.941125 270.134816 
Q 389.141047 309.881581 412.692578 363.151041 
Q 445.326422 436.963108 449.780369 292.934102 
Q 484.181021 -819.493141 494.163925 326.880012 
Q 499.904116 986.046991 501.00937 263.918692 
" style="fill:none;stroke:#000000;stroke-linejoin:miter;"/>
   </g>
   <g id="patch_3">
    <path clip-path="url(#pe05551d47c)" d="M 446.003849 353.773172 
Q 488.227155 353.622177 463.0721 349.748818 
Q 423.06724 343.588895 369.451875 320.189309 
Q 295.160508 287.766006 440.124768 283.340795 
Q 1559.775564 249.162082 405.958429 239.243584 
Q -257.488855 233.540427 469.328589 232.442303 
" style="fill:none;stroke:#000000;stroke-linejoin:miter;"/>
   </g>
   <g id="patch_4">
    <path clip-path="url(#pe05551d47c)" d="M 446.003849 373.426828 
Q 488.227155 373.577823 463.0721 377.451182 
Q 423.06724 383.611105 369.451875 407.010691 
Q 295.160508 439.433994 440.124768 443.859205 
Q 1559.775564 478.037918 405.958429 487.956416 
Q -257.488855 493.659573 469.328589 494.757697 
" style="fill:none;stroke:#000000;stroke-linejoin:miter;"/>
   </g>
   <g id="patch_5">
    <path clip-path="url(#pe05551d47c)" d="M 378.890639 440.10705 
Q 379.042614 482.057947 382.941125 457.065184 
Q 389.141047 417.318419 412.692578 364.048959 
Q 445.326422 290.236892 449.780369 434.265898 
Q 484.181021 1546.693141 494.163925 400.319988 
Q 499.904116 -258.846991 501.00937 463.281308 
" style="fill:none;stroke:#000000;stroke-linejoin:miter;"/>
   </g>
   <g id="patch_6">
    <path clip-path="url(#pe05551d47c)" d="M 359.109361 440.10705 
Q 358.957386 482.057947 355.058875 457.065184 
Q 348.858953 417.318419 325.307422 364.048959 
Q 292.673578 290.236892 288.219631 434.265898 
Q 253.818979 1546.693141 243.836075 400.319988 
Q 238.095884 -258.846991 236.99063 463.281308 
" style="fill:none;stroke:#000000;stroke-linejoin:miter;"/>
   </g>
   <g id="patch_7">
    <path clip-path="url(#pe05551d47c)" d="M 291.996151 373.426828 
Q 249.772845 373.577823 274.9279 377.451182 
Q 314.93276 383.611105 368.548125 407.010691 
Q 442.839492 439.433994 297.875232 443.859205 
Q -821.775564 478.037918 332.041571 487.956416 
Q 995.488855 493.659573 268.671411 494.757697 
" style="fill:none;stroke:#000000;stroke-linejoin:miter;"/>
   </g>
   <g id="patch_8">
    <path clip-path="url(#pe05551d47c)" d="M 291.996151 353.773172 
Q 249.772845 353.622177 274.9279 349.748818 
Q 314.93276 343.588895 368.548125 320.189309 
Q 442.839492 287.766006 297.875232 283.340795 
Q -821.775564 249.162082 332.041571 239.243584 
Q 995.488855 233.540427 268.671411 232.442303 
" style="fill:none;stroke:#000000;stroke-linejoin:miter;"/>
   </g>
   <g id="patch_9">
    <path clip-path="url(#pe05551d47c)" d="M 359.109361 287.09295 
Q 358.957386 245.142053 355.058875 270.134816 
Q 348.858953 309.881581 325.307422 363.151041 
Q 292.673578 436.963108 288.219631 292.934102 
Q 253.818979 -819.493141 243.836075 326.880012 
Q 238.095884 986.046991 236.99063 263.918692 
" style="fill:none;stroke:#000000;stroke-linejoin:miter;"/>
   </g>
   <g id="patch_10">
    <path clip-path="url(#pe05551d47c)" d="M 378.890639 287.09295 
Q 379.042614 245.142053 382.941125 270.134816 
Q 389.141047 309.881581 412.692578 363.151041 
Q 445.326422 436.963108 449.780369 292.934102 
Q 484.181021 -819.493141 494.163925 326.880012 
Q 499.904116 986.046991 501.00937 263.918692 
" style="fill:none;stroke:#000000;stroke-linejoin:miter;"/>
   </g>
   <g id="patch_11">
    <path clip-path="url(#pe05551d47c)" d="M 446.003849 353.773172 
Q 488.227155 353.622177 463.0721 349.748818 
Q 423.06724 343.588895 369.451875 320.189309 
Q 295.160508 287.766006 440.124768 283.340795 
Q 1559.775564 249.162082 405.958429 239.243584 
Q -257.488855 233.540427 469.328589 232.442303 
" style="fill:none;stroke:#000000;stroke-linejoin:miter;"/>
   </g>
  </g>
 </g>
 <defs>
  <clipPath id="pe05551d47c">
   <rect height="554.4" width="558" x="90" y="86.4"/>
  </clipPath>
 </defs>
</svg>
