<?xml version="1.0" encoding="utf-8" standalone="no"?>
<!DOCTYPE svg PUBLIC "-//W3C//DTD SVG 1.1//EN"
  "http://www.w3.org/Graphics/SVG/1.1/DTD/svg11.dtd">
<!-- Created with matplotlib (http://matplotlib.org/) -->
<svg height="720pt" version="1.1" viewBox="0 0 720 720" width="720pt" xmlns="http://www.w3.org/2000/svg" xmlns:xlink="http://www.w3.org/1999/xlink">
 <defs>
  <style type="text/css">
*{stroke-linecap:butt;stroke-linejoin:round;}
  </style>
 </defs>
 <g id="figure_1">
  <g id="patch_1">
   <path d="M 0 720 
L 720 720 
L 720 0 
L 0 0 
z
" style="fill:#ffffff;"/>
  </g>
  <g id="axes_1">
   <g id="patch_2">
    <path clip-path="url(#p526e552983)" d="M 374.101317 231.408898 
Q 376.118446 310.902202 382.994633 257.10298 
Q 384.195996 247.703528 388.068663 313.965643 
Q 400.242419 522.261031 402.513279 300.639397 
Q 402.710833 281.359321 442.958423 314.522545 
Q 449.928158 320.265469 450.083691 301.346687 
" style="fill:none;stroke:#000000;stroke-linejoin:miter;"/>
   </g>
   <g id="patch_3">
    <path clip-path="url(#p526e552983)" d="M 502.049486 358.531595 
Q 422.039992 356.527479 476.188559 349.695655 
Q 485.649047 348.502043 418.956658 344.65436 
Q 209.308703 332.559145 432.369438 330.302936 
Q 451.774709 330.106656 418.39614 290.118728 
Q 412.615924 283.193959 431.657555 283.03943 
" style="fill:none;stroke:#000000;stroke-linejoin:miter;"/>
   </g>
   <g id="patch_4">
    <path clip-path="url(#p526e552983)" d="M 502.049486 368.668405 
Q 422.039992 370.672521 476.188559 377.504345 
Q 485.649047 378.697957 418.956658 382.54564 
Q 209.308703 394.640855 432.369438 396.897064 
Q 451.774709 397.093344 418.39614 437.081272 
Q 412.615924 444.006041 431.657555 444.16057 
" style="fill:none;stroke:#000000;stroke-linejoin:miter;"/>
   </g>
   <g id="patch_5">
    <path clip-path="url(#p526e552983)" d="M 374.101317 495.791102 
Q 376.118446 416.297798 382.994633 470.09702 
Q 384.195996 479.496472 388.068663 413.234357 
Q 400.242419 204.938969 402.513279 426.560603 
Q 402.710833 445.840679 442.958423 412.677455 
Q 449.928158 406.934531 450.083691 425.853313 
" style="fill:none;stroke:#000000;stroke-linejoin:miter;"/>
   </g>
   <g id="patch_6">
    <path clip-path="url(#p526e552983)" d="M 363.898683 495.791102 
Q 361.881554 416.297798 355.005367 470.09702 
Q 353.804004 479.496472 349.931337 413.234357 
Q 337.757581 204.938969 335.486721 426.560603 
Q 335.289167 445.840679 295.041577 412.677455 
Q 288.071842 406.934531 287.916309 425.853313 
" style="fill:none;stroke:#000000;stroke-linejoin:miter;"/>
   </g>
   <g id="patch_7">
    <path clip-path="url(#p526e552983)" d="M 235.950514 368.668405 
Q 315.960008 370.672521 261.811441 377.504345 
Q 252.350953 378.697957 319.043342 382.54564 
Q 528.691297 394.640855 305.630562 396.897064 
Q 286.225291 397.093344 319.60386 437.081272 
Q 325.384076 444.006041 306.342445 444.16057 
" style="fill:none;stroke:#000000;stroke-linejoin:miter;"/>
   </g>
   <g id="patch_8">
    <path clip-path="url(#p526e552983)" d="M 235.950514 358.531595 
Q 315.960008 356.527479 261.811441 349.695655 
Q 252.350953 348.502043 319.043342 344.65436 
Q 528.691297 332.559145 305.630562 330.302936 
Q 286.225291 330.106656 319.60386 290.118728 
Q 325.384076 283.193959 306.342445 283.03943 
" style="fill:none;stroke:#000000;stroke-linejoin:miter;"/>
   </g>
   <g id="patch_9">
    <path clip-path="url(#p526e552983)" d="M 363.898683 231.408898 
Q 361.881554 310.902202 355.005367 257.10298 
Q 353.804004 247.703528 349.931337 313.965643 
Q 337.757581 522.261031 335.486721 300.639397 
Q 335.289167 281.359321 295.041577 314.522545 
Q 288.071842 320.265469 287.916309 301.346687 
" style="fill:none;stroke:#000000;stroke-linejoin:miter;"/>
   </g>
   <g id="patch_10">
    <path clip-path="url(#p526e552983)" d="M 374.101317 231.408898 
Q 376.118446 310.902202 382.994633 257.10298 
Q 384.195996 247.703528 388.068663 313.965643 
Q 400.242419 522.261031 402.513279 300.639397 
Q 402.710833 281.359321 442.958423 314.522545 
Q 449.928158 320.265469 450.083691 301.346687 
" style="fill:none;stroke:#000000;stroke-linejoin:miter;"/>
   </g>
   <g id="patch_11">
    <path clip-path="url(#p526e552983)" d="M 502.049486 358.531595 
Q 422.039992 356.527479 476.188559 349.695655 
Q 485.649047 348.502043 418.956658 344.65436 
Q 209.308703 332.559145 432.369438 330.302936 
Q 451.774709 330.106656 418.39614 290.118728 
Q 412.615924 283.193959 431.657555 283.03943 
" style="fill:none;stroke:#000000;stroke-linejoin:miter;"/>
   </g>
  </g>
 </g>
 <defs>
  <clipPath id="p526e552983">
   <rect height="554.4" width="558" x="90" y="86.4"/>
  </clipPath>
 </defs>
</svg>
