<?xml version="1.0" encoding="utf-8" standalone="no"?>
<!DOCTYPE svg PUBLIC "-//W3C//DTD SVG 1.1//EN"
  "http://www.w3.org/Graphics/SVG/1.1/DTD/svg11.dtd">
<!-- Created with matplotlib (http://matplotlib.org/) -->
<svg height="720pt" version="1.1" viewBox="0 0 720 720" width="720pt" xmlns="http://www.w3.org/2000/svg" xmlns:xlink="http://www.w3.org/1999/xlink">
 <defs>
  <style type="text/css">
*{stroke-linecap:butt;stroke-linejoin:round;}
  </style>
 </defs>
 <g id="figure_1">
  <g id="patch_1">
   <path d="M 0 720 
L 720 720 
L 720 0 
L 0 0 
z
" style="fill:#ffffff;"/>
  </g>
  <g id="axes_1">
   <g id="patch_2">
    <path clip-path="url(#p670d6d8011)" d="M 394.308951 300.906981 
Q 397.700976 330.306494 398.614133 245.670703 
Q 408.90789 -708.404107 436.225567 339.885436 
Q 437.485711 388.242253 438.857315 309.10894 
Q 458.733142 -837.607083 485.096349 313.64796 
Q 499.220799 930.448676 500.847401 352.92158 
" style="fill:none;stroke:#000000;stroke-linejoin:miter;"/>
   </g>
   <g id="patch_3">
    <path clip-path="url(#p670d6d8011)" d="M 432.100117 338.454332 
Q 402.509697 335.084192 487.695072 334.176926 
Q 1447.965173 323.94958 392.868555 296.808146 
Q 344.197732 295.556132 423.844898 294.193377 
Q 1578.007129 274.445781 419.276404 248.25266 
Q -201.529511 234.219335 379.74776 232.603227 
" style="fill:none;stroke:#000000;stroke-linejoin:miter;"/>
   </g>
   <g id="patch_4">
    <path clip-path="url(#p670d6d8011)" d="M 432.100117 388.745668 
Q 402.509697 392.115808 487.695072 393.023074 
Q 1447.965173 403.25042 392.868555 430.391854 
Q 344.197732 431.643868 423.844898 433.006623 
Q 1578.007129 452.754219 419.276404 478.94734 
Q -201.529511 492.980665 379.74776 494.596773 
" style="fill:none;stroke:#000000;stroke-linejoin:miter;"/>
   </g>
   <g id="patch_5">
    <path clip-path="url(#p670d6d8011)" d="M 394.308951 426.293019 
Q 397.700976 396.893506 398.614133 481.529297 
Q 408.90789 1435.604107 436.225567 387.314564 
Q 437.485711 338.957747 438.857315 418.09106 
Q 458.733142 1564.807083 485.096349 413.55204 
Q 499.220799 -203.248676 500.847401 374.27842 
" style="fill:none;stroke:#000000;stroke-linejoin:miter;"/>
   </g>
   <g id="patch_6">
    <path clip-path="url(#p670d6d8011)" d="M 343.691049 426.293019 
Q 340.299024 396.893506 339.385867 481.529297 
Q 329.09211 1435.604107 301.774433 387.314564 
Q 300.514289 338.957747 299.142685 418.09106 
Q 279.266858 1564.807083 252.903651 413.55204 
Q 238.779201 -203.248676 237.152599 374.27842 
" style="fill:none;stroke:#000000;stroke-linejoin:miter;"/>
   </g>
   <g id="patch_7">
    <path clip-path="url(#p670d6d8011)" d="M 305.899883 388.745668 
Q 335.490303 392.115808 250.304928 393.023074 
Q -709.965173 403.25042 345.131445 430.391854 
Q 393.802268 431.643868 314.155102 433.006623 
Q -840.007129 452.754219 318.723596 478.94734 
Q 939.529511 492.980665 358.25224 494.596773 
" style="fill:none;stroke:#000000;stroke-linejoin:miter;"/>
   </g>
   <g id="patch_8">
    <path clip-path="url(#p670d6d8011)" d="M 305.899883 338.454332 
Q 335.490303 335.084192 250.304928 334.176926 
Q -709.965173 323.94958 345.131445 296.808146 
Q 393.802268 295.556132 314.155102 294.193377 
Q -840.007129 274.445781 318.723596 248.25266 
Q 939.529511 234.219335 358.25224 232.603227 
" style="fill:none;stroke:#000000;stroke-linejoin:miter;"/>
   </g>
   <g id="patch_9">
    <path clip-path="url(#p670d6d8011)" d="M 343.691049 300.906981 
Q 340.299024 330.306494 339.385867 245.670703 
Q 329.09211 -708.404107 301.774433 339.885436 
Q 300.514289 388.242253 299.142685 309.10894 
Q 279.266858 -837.607083 252.903651 313.64796 
Q 238.779201 930.448676 237.152599 352.92158 
" style="fill:none;stroke:#000000;stroke-linejoin:miter;"/>
   </g>
   <g id="patch_10">
    <path clip-path="url(#p670d6d8011)" d="M 394.308951 300.906981 
Q 397.700976 330.306494 398.614133 245.670703 
Q 408.90789 -708.404107 436.225567 339.885436 
Q 437.485711 388.242253 438.857315 309.10894 
Q 458.733142 -837.607083 485.096349 313.64796 
Q 499.220799 930.448676 500.847401 352.92158 
" style="fill:none;stroke:#000000;stroke-linejoin:miter;"/>
   </g>
   <g id="patch_11">
    <path clip-path="url(#p670d6d8011)" d="M 432.100117 338.454332 
Q 402.509697 335.084192 487.695072 334.176926 
Q 1447.965173 323.94958 392.868555 296.808146 
Q 344.197732 295.556132 423.844898 294.193377 
Q 1578.007129 274.445781 419.276404 248.25266 
Q -201.529511 234.219335 379.74776 232.603227 
" style="fill:none;stroke:#000000;stroke-linejoin:miter;"/>
   </g>
  </g>
 </g>
 <defs>
  <clipPath id="p670d6d8011">
   <rect height="554.4" width="558" x="90" y="86.4"/>
  </clipPath>
 </defs>
</svg>
