<?xml version="1.0" encoding="utf-8" standalone="no"?>
<!DOCTYPE svg PUBLIC "-//W3C//DTD SVG 1.1//EN"
  "http://www.w3.org/Graphics/SVG/1.1/DTD/svg11.dtd">
<!-- Created with matplotlib (http://matplotlib.org/) -->
<svg height="720pt" version="1.1" viewBox="0 0 720 720" width="720pt" xmlns="http://www.w3.org/2000/svg" xmlns:xlink="http://www.w3.org/1999/xlink">
 <defs>
  <style type="text/css">
*{stroke-linecap:butt;stroke-linejoin:round;}
  </style>
 </defs>
 <g id="figure_1">
  <g id="patch_1">
   <path d="M 0 720 
L 720 720 
L 720 0 
L 0 0 
z
" style="fill:#ffffff;"/>
  </g>
  <g id="axes_1">
   <g id="patch_2">
    <path clip-path="url(#p19bb5d11a3)" d="M 436.336165 324.431849 
Q 442.47263 312.406512 447.029269 361.291539 
Q 447.612737 367.551165 462.289015 243.22971 
Q 464.764001 222.264329 467.333559 267.204611 
Q 478.933878 470.088338 484.083835 227.397911 
Q 496.545881 -359.872926 499.612183 242.643351 
" style="fill:none;stroke:#000000;stroke-linejoin:miter;"/>
   </g>
   <g id="patch_3">
    <path clip-path="url(#p19bb5d11a3)" d="M 408.422489 296.698262 
Q 420.525914 290.601387 371.323451 286.074146 
Q 365.023178 285.494442 490.151915 270.912849 
Q 511.253435 268.453832 466.021333 265.900851 
Q 261.820179 254.375373 506.086518 249.258642 
Q 1097.170802 236.876995 490.742082 233.830476 
" style="fill:none;stroke:#000000;stroke-linejoin:miter;"/>
   </g>
   <g id="patch_4">
    <path clip-path="url(#p19bb5d11a3)" d="M 408.422489 430.501738 
Q 420.525914 436.598613 371.323451 441.125854 
Q 365.023178 441.705558 490.151915 456.287151 
Q 511.253435 458.746168 466.021333 461.299149 
Q 261.820179 472.824627 506.086518 477.941358 
Q 1097.170802 490.323005 490.742082 493.369524 
" style="fill:none;stroke:#000000;stroke-linejoin:miter;"/>
   </g>
   <g id="patch_5">
    <path clip-path="url(#p19bb5d11a3)" d="M 436.336165 402.768151 
Q 442.47263 414.793488 447.029269 365.908461 
Q 447.612737 359.648835 462.289015 483.97029 
Q 464.764001 504.935671 467.333559 459.995389 
Q 478.933878 257.111662 484.083835 499.802089 
Q 496.545881 1087.072926 499.612183 484.556649 
" style="fill:none;stroke:#000000;stroke-linejoin:miter;"/>
   </g>
   <g id="patch_6">
    <path clip-path="url(#p19bb5d11a3)" d="M 301.663835 402.768151 
Q 295.52737 414.793488 290.970731 365.908461 
Q 290.387263 359.648835 275.710985 483.97029 
Q 273.235999 504.935671 270.666441 459.995389 
Q 259.066122 257.111662 253.916165 499.802089 
Q 241.454119 1087.072926 238.387817 484.556649 
" style="fill:none;stroke:#000000;stroke-linejoin:miter;"/>
   </g>
   <g id="patch_7">
    <path clip-path="url(#p19bb5d11a3)" d="M 329.577511 430.501738 
Q 317.474086 436.598613 366.676549 441.125854 
Q 372.976822 441.705558 247.848085 456.287151 
Q 226.746565 458.746168 271.978667 461.299149 
Q 476.179821 472.824627 231.913482 477.941358 
Q -359.170802 490.323005 247.257918 493.369524 
" style="fill:none;stroke:#000000;stroke-linejoin:miter;"/>
   </g>
   <g id="patch_8">
    <path clip-path="url(#p19bb5d11a3)" d="M 329.577511 296.698262 
Q 317.474086 290.601387 366.676549 286.074146 
Q 372.976822 285.494442 247.848085 270.912849 
Q 226.746565 268.453832 271.978667 265.900851 
Q 476.179821 254.375373 231.913482 249.258642 
Q -359.170802 236.876995 247.257918 233.830476 
" style="fill:none;stroke:#000000;stroke-linejoin:miter;"/>
   </g>
   <g id="patch_9">
    <path clip-path="url(#p19bb5d11a3)" d="M 301.663835 324.431849 
Q 295.52737 312.406512 290.970731 361.291539 
Q 290.387263 367.551165 275.710985 243.22971 
Q 273.235999 222.264329 270.666441 267.204611 
Q 259.066122 470.088338 253.916165 227.397911 
Q 241.454119 -359.872926 238.387817 242.643351 
" style="fill:none;stroke:#000000;stroke-linejoin:miter;"/>
   </g>
   <g id="patch_10">
    <path clip-path="url(#p19bb5d11a3)" d="M 436.336165 324.431849 
Q 442.47263 312.406512 447.029269 361.291539 
Q 447.612737 367.551165 462.289015 243.22971 
Q 464.764001 222.264329 467.333559 267.204611 
Q 478.933878 470.088338 484.083835 227.397911 
Q 496.545881 -359.872926 499.612183 242.643351 
" style="fill:none;stroke:#000000;stroke-linejoin:miter;"/>
   </g>
   <g id="patch_11">
    <path clip-path="url(#p19bb5d11a3)" d="M 408.422489 296.698262 
Q 420.525914 290.601387 371.323451 286.074146 
Q 365.023178 285.494442 490.151915 270.912849 
Q 511.253435 268.453832 466.021333 265.900851 
Q 261.820179 254.375373 506.086518 249.258642 
Q 1097.170802 236.876995 490.742082 233.830476 
" style="fill:none;stroke:#000000;stroke-linejoin:miter;"/>
   </g>
  </g>
 </g>
 <defs>
  <clipPath id="p19bb5d11a3">
   <rect height="554.4" width="558" x="90" y="86.4"/>
  </clipPath>
 </defs>
</svg>
