<?xml version="1.0" encoding="utf-8" standalone="no"?>
<!DOCTYPE svg PUBLIC "-//W3C//DTD SVG 1.1//EN"
  "http://www.w3.org/Graphics/SVG/1.1/DTD/svg11.dtd">
<!-- Created with matplotlib (http://matplotlib.org/) -->
<svg height="720pt" version="1.1" viewBox="0 0 720 720" width="720pt" xmlns="http://www.w3.org/2000/svg" xmlns:xlink="http://www.w3.org/1999/xlink">
 <defs>
  <style type="text/css">
*{stroke-linecap:butt;stroke-linejoin:round;}
  </style>
 </defs>
 <g id="figure_1">
  <g id="patch_1">
   <path d="M 0 720 
L 720 720 
L 720 0 
L 0 0 
z
" style="fill:#ffffff;"/>
  </g>
  <g id="axes_1">
   <g id="patch_2">
    <path clip-path="url(#pf49e9c1e6c)" d="M 379.004098 343.132783 
Q 410.923013 356.579239 415.413747 296.135298 
Q 435.86988 20.801851 452.473405 240.564922 
Q 454.471156 267.007 460.868302 336.766151 
Q 493.730567 695.120285 501.35401 239.983726 
Q 501.756722 215.940906 502.074339 283.661613 
" style="fill:none;stroke:#000000;stroke-linejoin:miter;"/>
   </g>
   <g id="patch_3">
    <path clip-path="url(#pf49e9c1e6c)" d="M 389.600121 353.660445 
Q 376.06635 321.947458 436.902784 317.485697 
Q 714.024111 297.161539 492.834007 280.665133 
Q 466.220227 278.680271 396.008095 272.324397 
Q 35.326986 239.674146 493.418977 232.099887 
Q 517.61792 231.699773 449.457467 231.384205 
" style="fill:none;stroke:#000000;stroke-linejoin:miter;"/>
   </g>
   <g id="patch_4">
    <path clip-path="url(#pf49e9c1e6c)" d="M 389.600121 373.539555 
Q 376.06635 405.252542 436.902784 409.714303 
Q 714.024111 430.038461 492.834007 446.534867 
Q 466.220227 448.519729 396.008095 454.875603 
Q 35.326986 487.525854 493.418977 495.100113 
Q 517.61792 495.500227 449.457467 495.815795 
" style="fill:none;stroke:#000000;stroke-linejoin:miter;"/>
   </g>
   <g id="patch_5">
    <path clip-path="url(#pf49e9c1e6c)" d="M 379.004098 384.067217 
Q 410.923013 370.620761 415.413747 431.064702 
Q 435.86988 706.398149 452.473405 486.635078 
Q 454.471156 460.193 460.868302 390.433849 
Q 493.730567 32.079715 501.35401 487.216274 
Q 501.756722 511.259094 502.074339 443.538387 
" style="fill:none;stroke:#000000;stroke-linejoin:miter;"/>
   </g>
   <g id="patch_6">
    <path clip-path="url(#pf49e9c1e6c)" d="M 358.995902 384.067217 
Q 327.076987 370.620761 322.586253 431.064702 
Q 302.13012 706.398149 285.526595 486.635078 
Q 283.528844 460.193 277.131698 390.433849 
Q 244.269433 32.079715 236.64599 487.216274 
Q 236.243278 511.259094 235.925661 443.538387 
" style="fill:none;stroke:#000000;stroke-linejoin:miter;"/>
   </g>
   <g id="patch_7">
    <path clip-path="url(#pf49e9c1e6c)" d="M 348.399879 373.539555 
Q 361.93365 405.252542 301.097216 409.714303 
Q 23.975889 430.038461 245.165993 446.534867 
Q 271.779773 448.519729 341.991905 454.875603 
Q 702.673014 487.525854 244.581023 495.100113 
Q 220.38208 495.500227 288.542533 495.815795 
" style="fill:none;stroke:#000000;stroke-linejoin:miter;"/>
   </g>
   <g id="patch_8">
    <path clip-path="url(#pf49e9c1e6c)" d="M 348.399879 353.660445 
Q 361.93365 321.947458 301.097216 317.485697 
Q 23.975889 297.161539 245.165993 280.665133 
Q 271.779773 278.680271 341.991905 272.324397 
Q 702.673014 239.674146 244.581023 232.099887 
Q 220.38208 231.699773 288.542533 231.384205 
" style="fill:none;stroke:#000000;stroke-linejoin:miter;"/>
   </g>
   <g id="patch_9">
    <path clip-path="url(#pf49e9c1e6c)" d="M 358.995902 343.132783 
Q 327.076987 356.579239 322.586253 296.135298 
Q 302.13012 20.801851 285.526595 240.564922 
Q 283.528844 267.007 277.131698 336.766151 
Q 244.269433 695.120285 236.64599 239.983726 
Q 236.243278 215.940906 235.925661 283.661613 
" style="fill:none;stroke:#000000;stroke-linejoin:miter;"/>
   </g>
   <g id="patch_10">
    <path clip-path="url(#pf49e9c1e6c)" d="M 379.004098 343.132783 
Q 410.923013 356.579239 415.413747 296.135298 
Q 435.86988 20.801851 452.473405 240.564922 
Q 454.471156 267.007 460.868302 336.766151 
Q 493.730567 695.120285 501.35401 239.983726 
Q 501.756722 215.940906 502.074339 283.661613 
" style="fill:none;stroke:#000000;stroke-linejoin:miter;"/>
   </g>
   <g id="patch_11">
    <path clip-path="url(#pf49e9c1e6c)" d="M 389.600121 353.660445 
Q 376.06635 321.947458 436.902784 317.485697 
Q 714.024111 297.161539 492.834007 280.665133 
Q 466.220227 278.680271 396.008095 272.324397 
Q 35.326986 239.674146 493.418977 232.099887 
Q 517.61792 231.699773 449.457467 231.384205 
" style="fill:none;stroke:#000000;stroke-linejoin:miter;"/>
   </g>
  </g>
 </g>
 <defs>
  <clipPath id="pf49e9c1e6c">
   <rect height="554.4" width="558" x="90" y="86.4"/>
  </clipPath>
 </defs>
</svg>
